<svg width="96" height="96" viewBox="0 0 480 480" fill="none" xmlns="http://www.w3.org/2000/svg">
<rect width="480" height="480" fill="#E5E5E5"/>
<rect width="480" height="480" fill="#2914B4"/>
<path d="M39.4277 304.234C43.4967 303.176 46.8333 302.2 49.4375 301.305C52.0417 300.328 54.0762 299.026 55.541 297.398C57.0872 295.771 58.1452 293.614 58.7148 290.929C59.2845 288.162 59.5693 284.459 59.5693 279.82V143.59L39.4277 137.12V127.232H73.1191C75.8861 127.232 78.4089 127.192 80.6875 127.11C82.9661 126.948 85.2041 126.785 87.4014 126.622C89.5986 126.459 91.8366 126.256 94.1152 126.012C96.4753 125.768 99.1608 125.564 102.172 125.401C105.183 125.239 108.601 125.117 112.426 125.035C116.332 124.872 120.93 124.791 126.22 124.791C133.788 124.791 140.746 125.768 147.094 127.721C153.523 129.592 159.016 132.441 163.573 136.266C168.212 140.09 171.833 144.933 174.438 150.792C177.042 156.57 178.344 163.365 178.344 171.178C178.344 177.444 177.245 183.71 175.048 189.977C172.851 196.243 169.799 202.021 165.893 207.311C162.068 212.6 157.551 217.158 152.343 220.982C147.134 224.726 141.479 227.249 135.375 228.551C136.352 230.829 137.572 233.515 139.037 236.607C140.583 239.7 142.333 242.996 144.286 246.495C146.239 249.994 148.396 253.575 150.756 257.237C153.197 260.818 155.801 264.317 158.568 267.735C162.475 272.618 166.503 277.298 170.653 281.773C174.804 286.168 178.913 290.156 182.982 293.736C187.051 297.317 191.08 300.41 195.067 303.014C199.136 305.618 203.002 307.49 206.664 308.629L206.542 314.854C203.694 314.854 200.52 314.854 197.021 314.854C193.521 314.854 190.347 314.814 187.499 314.732C184.651 314.732 181.802 314.61 178.954 314.366C176.106 314.203 173.339 313.837 170.653 313.268C166.259 312.454 162.312 310.908 158.812 308.629C155.395 306.35 152.221 303.583 149.291 300.328C146.443 297.073 143.716 293.492 141.112 289.586C138.59 285.598 135.945 281.489 133.178 277.257C130.98 273.757 128.905 270.217 126.952 266.637C125.08 262.975 123.249 259.272 121.459 255.528C119.669 251.703 117.878 247.838 116.088 243.932C114.298 239.944 112.426 235.916 110.473 231.847C107.543 231.765 104.125 231.562 100.219 231.236C96.3125 230.911 91.5518 230.382 85.9365 229.649V297.887L108.886 304.234V313.878H39.4277V304.234ZM85.9365 216.832C90.2497 217.646 94.7663 218.215 99.4863 218.541C104.206 218.785 108.845 218.744 113.402 218.419C118.041 218.012 122.436 217.32 126.586 216.344C130.818 215.367 134.561 213.984 137.816 212.193C139.688 210.403 141.479 208.409 143.188 206.212C144.896 204.015 146.402 201.492 147.704 198.644C149.006 195.795 150.023 192.581 150.756 189C151.57 185.338 151.977 181.188 151.977 176.549C151.977 170.364 150.878 164.83 148.681 159.947C146.565 155.064 143.594 150.955 139.77 147.618C135.945 144.2 131.387 141.596 126.098 139.806C120.808 138.015 115.03 137.12 108.764 137.12C103.393 137.12 99.1608 137.527 96.0684 138.341C93.0573 139.073 90.7786 140.457 89.2324 142.491C87.7676 144.526 86.8317 147.333 86.4248 150.914C86.0993 154.413 85.9365 158.889 85.9365 164.342V216.832Z" fill="#B39B02"/>
<path d="M205.81 303.99C210.041 302.851 213.297 301.752 215.575 300.694C217.854 299.636 219.604 298.253 220.824 296.544C222.045 294.835 223.021 292.597 223.754 289.83C224.568 286.982 225.585 283.157 226.806 278.355L228.393 272.008L244.628 152.501C244.221 150.06 243.611 148.066 242.797 146.52C241.983 144.892 240.803 143.549 239.257 142.491C237.792 141.433 235.92 140.538 233.642 139.806C231.363 138.992 228.555 138.137 225.219 137.242V127.232H274.291V131.993L329.589 270.665L381.713 130.406L381.347 127.232H430.785V137.486C426.472 138.626 422.932 139.643 420.165 140.538C417.479 141.352 415.364 142.532 413.817 144.078C412.271 145.624 411.173 147.74 410.521 150.426C409.952 153.111 409.667 156.896 409.667 161.778L430.053 297.154L452.392 303.868V314H382.689V303.868C386.921 302.729 390.339 301.671 392.943 300.694C395.548 299.718 397.541 298.375 398.925 296.666C400.39 294.957 401.326 292.678 401.732 289.83C402.221 286.982 402.465 283.116 402.465 278.233L386.474 163.121C386.474 162.958 386.433 162.796 386.352 162.633C386.352 162.389 386.352 162.185 386.352 162.022L332.274 307.408C332.274 308.059 332.193 308.71 332.03 309.361C331.868 310.012 331.583 310.541 331.176 310.948L319.945 315.221L260.009 161.412L246.459 267.125L245.849 297.276L266.967 303.99V314H205.81V303.99Z" fill="#FFDF0F"/>
</svg>
